<?xml version="1.0" encoding="us-ascii" standalone="no"?><svg xmlns="http://www.w3.org/2000/svg" xmlns:xlink="http://www.w3.org/1999/xlink" contentStyleType="text/css" height="532px" preserveAspectRatio="none" style="width:811px;height:532px;background:#FFFFFF;" version="1.1" viewBox="0 0 811 532" width="811px" zoomAndPan="magnify"><defs/><g><text fill="#000000" font-family="sans-serif" font-size="14" font-weight="bold" lengthAdjust="spacing" textLength="312" x="242.5" y="24.5332">UML-Klassendiagramm "Kontokorrentkonto"</text><!--class Konto--><g id="elem_Konto"><rect codeLine="10" fill="#F1F1F1" height="114.0469" id="Konto" rx="2.5" ry="2.5" style="stroke:#181818;stroke-width:0.5;" width="146" x="115.5" y="72.1094"/><text fill="#000000" font-family="sans-serif" font-size="14" lengthAdjust="spacing" textLength="37" x="170" y="91.6426">Konto</text><line style="stroke:#181818;stroke-width:0.5;" x1="116.5" x2="260.5" y1="99.7188" y2="99.7188"/><ellipse cx="126.5" cy="114.0234" fill="none" rx="3" ry="3" style="stroke:#038048;stroke-width:1.0;"/><text fill="#000000" font-family="sans-serif" font-size="14" lengthAdjust="spacing" textLength="60" x="135.5" y="118.252">eintraege</text><ellipse cx="126.5" cy="131.6328" fill="none" rx="3" ry="3" style="stroke:#038048;stroke-width:1.0;"/><text fill="#000000" font-family="sans-serif" font-size="14" lengthAdjust="spacing" textLength="34" x="135.5" y="135.8613">saldo</text><line style="stroke:#181818;stroke-width:0.5;" x1="116.5" x2="260.5" y1="142.9375" y2="142.9375"/><ellipse cx="126.5" cy="157.2422" fill="#84BE84" rx="3" ry="3" style="stroke:#038048;stroke-width:1.0;"/><text fill="#000000" font-family="sans-serif" font-size="14" lengthAdjust="spacing" textLength="116" x="135.5" y="161.4707">eintrag_erstellen()</text><ellipse cx="126.5" cy="174.8516" fill="#84BE84" rx="3" ry="3" style="stroke:#038048;stroke-width:1.0;"/><text fill="#000000" font-family="sans-serif" font-size="14" lengthAdjust="spacing" textLength="120" x="135.5" y="179.0801">saldo_berechnen()</text></g><!--class Eintrag--><g id="elem_Eintrag"><rect codeLine="16" fill="#F1F1F1" height="78.8281" id="Eintrag" rx="2.5" ry="2.5" style="stroke:#181818;stroke-width:0.5;" width="67" x="362" y="89.6094"/><text fill="#000000" font-family="sans-serif" font-size="14" lengthAdjust="spacing" textLength="45" x="373" y="109.1426">Eintrag</text><line style="stroke:#181818;stroke-width:0.5;" x1="363" x2="428" y1="117.2188" y2="117.2188"/><ellipse cx="373" cy="131.5234" fill="none" rx="3" ry="3" style="stroke:#038048;stroke-width:1.0;"/><text fill="#000000" font-family="sans-serif" font-size="14" lengthAdjust="spacing" textLength="41" x="382" y="135.752">betrag</text><ellipse cx="373" cy="149.1328" fill="none" rx="3" ry="3" style="stroke:#038048;stroke-width:1.0;"/><text fill="#000000" font-family="sans-serif" font-size="14" lengthAdjust="spacing" textLength="39" x="382" y="153.3613">datum</text><line style="stroke:#181818;stroke-width:0.5;" x1="363" x2="428" y1="160.4375" y2="160.4375"/></g><!--class Datum--><g id="elem_Datum"><rect codeLine="20" fill="#F1F1F1" height="166.875" id="Datum" rx="2.5" ry="2.5" style="stroke:#181818;stroke-width:0.5;" width="275" x="529" y="45.6094"/><text fill="#000000" font-family="sans-serif" font-size="14" lengthAdjust="spacing" textLength="41" x="646" y="65.1426">Datum</text><line style="stroke:#181818;stroke-width:0.5;" x1="530" x2="803" y1="73.2188" y2="73.2188"/><ellipse cx="540" cy="87.5234" fill="none" rx="3" ry="3" style="stroke:#038048;stroke-width:1.0;"/><text fill="#000000" font-family="sans-serif" font-size="14" lengthAdjust="spacing" textLength="20" x="549" y="91.752">tag</text><ellipse cx="540" cy="105.1328" fill="none" rx="3" ry="3" style="stroke:#038048;stroke-width:1.0;"/><text fill="#000000" font-family="sans-serif" font-size="14" lengthAdjust="spacing" textLength="39" x="549" y="109.3613">monat</text><ellipse cx="540" cy="122.7422" fill="none" rx="3" ry="3" style="stroke:#038048;stroke-width:1.0;"/><text fill="#000000" font-family="sans-serif" font-size="14" lengthAdjust="spacing" textLength="24" x="549" y="126.9707">jahr</text><rect fill="none" height="6" style="stroke:#C82930;stroke-width:1.0;" width="6" x="537" y="137.3516"/><text fill="#000000" font-family="sans-serif" font-size="14" lengthAdjust="spacing" textLength="61" x="549" y="144.5801">schaltjahr</text><line style="stroke:#181818;stroke-width:0.5;" x1="530" x2="803" y1="151.6563" y2="151.6563"/><ellipse cx="540" cy="165.9609" fill="#84BE84" rx="3" ry="3" style="stroke:#038048;stroke-width:1.0;"/><text fill="#000000" font-family="sans-serif" font-size="14" lengthAdjust="spacing" textLength="160" x="549" y="170.1895">anzahl_tage_bis_datum()</text><rect fill="#F24D5C" height="6" style="stroke:#C82930;stroke-width:1.0;" width="6" x="537" y="180.5703"/><text fill="#000000" font-family="sans-serif" font-size="14" lengthAdjust="spacing" textLength="249" x="549" y="187.7988">tage_in_deutscher_usanz_berechnen()</text><rect fill="#F24D5C" height="6" style="stroke:#C82930;stroke-width:1.0;" width="6" x="537" y="198.1797"/><text fill="#000000" font-family="sans-serif" font-size="14" lengthAdjust="spacing" textLength="152" x="549" y="205.4082">pruefen_ob_schaltjahr()</text></g><!--class Bilanzkonto--><g id="elem_Bilanzkonto"><rect codeLine="29" fill="#F1F1F1" height="61.2188" id="Bilanzkonto" rx="2.5" ry="2.5" style="stroke:#181818;stroke-width:0.5;" width="128" x="21.5" y="272.6094"/><text fill="#000000" font-family="sans-serif" font-size="14" lengthAdjust="spacing" textLength="72" x="49.5" y="292.1426">Bilanzkonto</text><line style="stroke:#181818;stroke-width:0.5;" x1="22.5" x2="148.5" y1="300.2188" y2="300.2188"/><ellipse cx="32.5" cy="314.5234" fill="none" rx="3" ry="3" style="stroke:#038048;stroke-width:1.0;"/><text fill="#000000" font-family="sans-serif" font-size="14" lengthAdjust="spacing" textLength="102" x="41.5" y="318.752">anfangsbestand</text><line style="stroke:#181818;stroke-width:0.5;" x1="22.5" x2="148.5" y1="325.8281" y2="325.8281"/></g><!--class Erfolgskonto--><g id="elem_Erfolgskonto"><rect codeLine="32" fill="#F8F8FF" height="43.6094" id="Erfolgskonto" rx="2.5" ry="2.5" style="stroke:#181818;stroke-width:0.5;" width="85" x="250" y="281.1094"/><text fill="#000000" font-family="sans-serif" font-size="14" lengthAdjust="spacing" textLength="79" x="253" y="300.6426">Erfolgskonto</text><line style="stroke:#181818;stroke-width:0.5;" x1="251" x2="334" y1="308.7188" y2="308.7188"/><line style="stroke:#181818;stroke-width:0.5;" x1="251" x2="334" y1="316.7188" y2="316.7188"/></g><!--class Kontokorrentkonto--><g id="elem_Kontokorrentkonto"><rect codeLine="33" fill="#F1F1F1" height="131.6563" id="Kontokorrentkonto" rx="2.5" ry="2.5" style="stroke:#181818;stroke-width:0.5;" width="157" x="7" y="393.6094"/><text fill="#000000" font-family="sans-serif" font-size="14" lengthAdjust="spacing" textLength="117" x="27" y="413.1426">Kontokorrentkonto</text><line style="stroke:#181818;stroke-width:0.5;" x1="8" x2="163" y1="421.2188" y2="421.2188"/><ellipse cx="18" cy="435.5234" fill="none" rx="3" ry="3" style="stroke:#038048;stroke-width:1.0;"/><text fill="#000000" font-family="sans-serif" font-size="14" lengthAdjust="spacing" textLength="45" x="27" y="439.752">sollzins</text><ellipse cx="18" cy="453.1328" fill="none" rx="3" ry="3" style="stroke:#038048;stroke-width:1.0;"/><text fill="#000000" font-family="sans-serif" font-size="14" lengthAdjust="spacing" textLength="64" x="27" y="457.3613">habenzins</text><ellipse cx="18" cy="470.7422" fill="none" rx="3" ry="3" style="stroke:#038048;stroke-width:1.0;"/><text fill="#000000" font-family="sans-serif" font-size="14" lengthAdjust="spacing" textLength="102" x="27" y="474.9707">laufender_saldo</text><ellipse cx="18" cy="488.3516" fill="none" rx="3" ry="3" style="stroke:#038048;stroke-width:1.0;"/><text fill="#000000" font-family="sans-serif" font-size="14" lengthAdjust="spacing" textLength="131" x="27" y="492.5801">aufgelaufene_zinsen</text><line style="stroke:#181818;stroke-width:0.5;" x1="8" x2="163" y1="499.6563" y2="499.6563"/><ellipse cx="18" cy="513.9609" fill="#84BE84" rx="3" ry="3" style="stroke:#038048;stroke-width:1.0;"/><text fill="#000000" font-family="sans-serif" font-size="14" lengthAdjust="spacing" textLength="110" x="27" y="518.1895">zins_berechnen()</text></g><!--link Konto to Eintrag--><!--reverse link Konto to Eintrag--><g id="link_Konto_Eintrag"><path codeLine="47" d="M273.343,87.2054 C306.713,79.1254 328.41,87.2094 361.78,105.7894 " fill="none" id="Konto-backto-Eintrag" style="stroke:#181818;stroke-width:1.0;"/><polygon fill="#181818" points="261.68,90.0294,268.4528,92.505,273.343,87.2054,266.5702,84.7297,261.68,90.0294" style="stroke:#181818;stroke-width:1.0;"/><text fill="#000000" font-family="sans-serif" font-size="13" lengthAdjust="spacing" textLength="7" x="269.5876" y="82.6851">1</text><text fill="#000000" font-family="sans-serif" font-size="13" lengthAdjust="spacing" textLength="5" x="348.8569" y="96.4905">*</text></g><!--link Eintrag to Datum--><!--reverse link Eintrag to Datum--><g id="link_Eintrag_Datum"><path codeLine="48" d="M440.5092,112.49 C473.7392,101.56 495.57,99.7294 528.8,99.4894 " fill="none" id="Eintrag-backto-Datum" style="stroke:#181818;stroke-width:1.0;"/><polygon fill="none" points="429.11,116.2394,436.0594,118.1644,440.5092,112.49,433.5598,110.5649,429.11,116.2394" style="stroke:#181818;stroke-width:1.0;"/><text fill="#000000" font-family="sans-serif" font-size="13" lengthAdjust="spacing" textLength="7" x="437.2278" y="109.2264">1</text><text fill="#000000" font-family="sans-serif" font-size="13" lengthAdjust="spacing" textLength="7" x="514.0781" y="94.9402">1</text></g><!--reverse link Konto to Bilanzkonto--><g id="link_Konto_Bilanzkonto"><path codeLine="44" d="M145.5234,201.8728 C128.3934,230.4828 117.52,248.6394 103.39,272.2394 " fill="none" id="Konto-backto-Bilanzkonto" style="stroke:#181818;stroke-width:1.0;"/><polygon fill="none" points="154.77,186.4294,140.3756,198.7906,150.6712,204.955,154.77,186.4294" style="stroke:#181818;stroke-width:1.0;"/></g><!--reverse link Konto to Erfolgskonto--><g id="link_Konto_Erfolgskonto"><path codeLine="45" d="M231.8641,201.8322 C251.4141,234.1622 265.51,257.4694 279.68,280.9094 " fill="none" id="Konto-backto-Erfolgskonto" style="stroke:#181818;stroke-width:1.0;"/><polygon fill="none" points="222.55,186.4294,226.7298,204.9369,236.9984,198.7275,222.55,186.4294" style="stroke:#181818;stroke-width:1.0;"/></g><!--reverse link Bilanzkonto to Kontokorrentkonto--><g id="link_Bilanzkonto_Kontokorrentkonto"><path codeLine="46" d="M85.5,351.8994 C85.5,368.8194 85.5,372.7094 85.5,393.4094 " fill="none" id="Bilanzkonto-backto-Kontokorrentkonto" style="stroke:#181818;stroke-width:1.0;"/><polygon fill="none" points="85.5,333.8994,79.5,351.8994,91.5,351.8994,85.5,333.8994" style="stroke:#181818;stroke-width:1.0;"/></g><!--SRC=[RL9DRzGm4BtxLunoweS2xJtQGw52gC0DSK38ciIpYHjd7DdEeItxtt7YJTO1Sebdtdlscu-WWo7u_lLB-MJGUsAbiNKu350yMGwsjyuHXtu-5o1yhtd4YCCtgyZJ2FTtTwBJYg3HhebNfQ2gs8RFmsXeY6fIXmFuG8viU1b9L3wy63g8TtiIl0c8tmCsVUlinEg3DTR1fyxwyAFJWSH9LE-J5aGp-uN5v5bu2wGvEAGssaW9ZqPPsA6j91Uz64DyTPtJP1qDDXql-TFv_iUasLweQGdFaS8m3R2HFoxXIWqNtc0PmneyO-VIkGJVT6Z29NCBoA_O6Hd596ljvVB4rVKgMFAQfQ8fH34vEVaesNbFpD5DT2IMjfQNLxBA7hI9mdxNF-GZSkjhyW5PNPhWZjQqFd7_CzgtKpwDV6MscxqrvbMpNylii2RE4mQdw5R5WdOpYzcM4aPovXElq1pzDJEHrg7y6PTG4VywhFCJwnmpQ9dMAgb-bsNUaZozAr_aVLlWVui-Yulx0cuYeRWfjZtQZCoWdS7uJtlp1m00]--></g></svg>